<?xml version="1.0" encoding="UTF-8" standalone="no"?>
<svg
   xmlns:dc="http://purl.org/dc/elements/1.1/"
   xmlns:cc="http://creativecommons.org/ns#"
   xmlns:rdf="http://www.w3.org/1999/02/22-rdf-syntax-ns#"
   xmlns:svg="http://www.w3.org/2000/svg"
   xmlns="http://www.w3.org/2000/svg"
   id="svg29"
   style="clip-rule:evenodd;fill-rule:evenodd;image-rendering:optimizeQuality;shape-rendering:geometricPrecision;text-rendering:geometricPrecision"
   version="1.1"
   height="603.87598"
   width="1319.6899"
   xml:space="preserve"><metadata
   id="metadata33"><rdf:RDF><cc:Work
       rdf:about=""><dc:format>image/svg+xml</dc:format><dc:type
         rdf:resource="http://purl.org/dc/dcmitype/StillImage" /><dc:title></dc:title></cc:Work></rdf:RDF></metadata><rect
   y="0"
   x="0"
   height="603.87598"
   width="1319.6899"
   id="rect843"
   style="opacity:1;fill:#000000;fill-opacity:1;stroke:none;stroke-width:2.79999995;stroke-miterlimit:4;stroke-dasharray:none;stroke-opacity:1" /><rect
   style="fill:none;stroke:none"
   y="206.93799"
   x="279.84497"
   height="100%"
   width="100%"
   id="backgroundrect" />
 <defs
   id="defs5"><style
     id="style3"
     type="text/css">
   <![CDATA[
    .str0 {stroke:#8F6C3A;stroke-width:0.52;stroke-miterlimit:22.9256}
    .fil0 {fill:#C5A974}
   ]]>
  </style></defs>
 
<g
   transform="translate(279.84497,206.93799)"
   id="g27"
   class="currentLayer"><title
     id="title7">Layer 1</title><g
     id="Layer_x0020_1">
  <metadata
   id="CorelCorpID_0Corel-Layer" />
  <path
   style="fill:#c5a974;stroke:#8f6c3a;stroke-width:0.51999998;stroke-miterlimit:22.92560005"
   id="svg_1"
   d="m 13.62,53.46 v 122.6 0.01 h 22.59 v 0 c 0,-23.48 0,-42.71 0,-58.45 v 0 l 15.5,33.78 15.53,-34.33 h 0.01 l -0.01,59 v 0 h 22.59 v 0 c 0.05,-64.29 0.08,-101.3 0.1,-122.6 v 0 L 69.04,53.46 v 0 L 51.71,97.62 34.27,53.46 v 0 z"
   class="fil0 str0" />
  <polygon
   style="fill:#c5a974;stroke:#8f6c3a;stroke-width:0.51999998;stroke-miterlimit:22.92560005"
   id="svg_2"
   points="93.73,176.06 117.3,53.5 144.31,53.5 144.31,53.5 167.88,176.06 143.94,176 130.81,98.28 117.67,176 "
   class="fil0 str0" />
  <path
   style="fill:#c5a974;stroke:#8f6c3a;stroke-width:0.51999998;stroke-miterlimit:22.92560005"
   id="svg_3"
   d="m 234.81,176.12 c -9.52,0 -16.29,0 -21.12,0 h 0.12 c -1.4,-3.8 -5.71,-15.57 -19.06,-52.02 v 0 c 0,20.15 0,37.32 0,51.96 v 0 c -7.34,0 -14.87,0 -22.59,0 v 0 c 0,-29.17 0,-68.79 0,-122.6 v 0 c 5.95,0 11.79,0 17.51,0 v 0 l 22.65,55.63 v 0 c 0,-16.69 0,-35.15 0,-55.57 v 0 h 22.6 v 0 c 0,52.99 0,92.75 0,122.6 v 0 c -0.04,0 -0.08,0 -0.11,0 h 0.11 z"
   class="fil0 str0" />
  <path
   style="fill:#c5a974;stroke:#8f6c3a;stroke-width:0.51999998;stroke-miterlimit:22.92560005"
   id="svg_4"
   d="m 746.47,176.06 c -9.51,0 -16.29,0 -21.11,0 h 0.11 c -1.39,-3.79 -5.7,-15.56 -19.06,-52.01 v 0 c 0,20.14 0,37.31 0,51.95 v 0 c -7.34,0 -14.86,0 -22.58,0 v 0 c 0,-29.17 0,-68.79 0,-122.6 v 0 c 5.95,0 11.78,0 17.5,0 v 0 l 22.65,55.63 v 0 c 0,-16.68 0,-35.14 0,-55.57 v 0 h 22.6 v 0 c 0,52.99 0,92.76 0,122.6 v 0 c -0.03,0 -0.07,0 -0.11,0 h 0.11 z"
   class="fil0 str0" />
  <polygon
   style="fill:#c5a974;stroke:#8f6c3a;stroke-width:0.51999998;stroke-miterlimit:22.92560005"
   id="svg_5"
   points="303.08,176.03 326.65,53.46 353.66,53.46 353.66,53.46 377.23,176.03 353.29,175.96 340.15,98.24 327.02,175.96 "
   class="fil0 str0" />
  <polygon
   style="fill:#c5a974;stroke:#8f6c3a;stroke-width:0.51999998;stroke-miterlimit:22.92560005"
   id="svg_6"
   points="605.37,176.02 628.94,53.45 655.95,53.45 655.95,53.45 679.52,176.02 655.58,175.95 642.44,98.23 629.31,175.95 "
   class="fil0 str0" />
  <path
   style="fill:#c5a974;stroke:#8f6c3a;stroke-width:0.51999998;stroke-miterlimit:22.92560005"
   id="svg_7"
   d="m 601.61,176.02 -23.84,0.03 v 0 c 0,-65.37 0,-102.05 0,-122.63 v 0 h 23.84 v 0 c 0,23.83 0,61.88 0,122.6 z"
   class="fil0 str0" />
  <path
   style="fill:#c5a974;stroke:#8f6c3a;stroke-width:0.51999998;stroke-miterlimit:22.92560005"
   id="svg_8"
   d="m 287.7,176.06 h -46.4 v 0 c 0,-20.15 0,-56.61 0,-122.6 v 0 h 46.4 v 0 c 8.03,0 14.54,6.52 14.54,14.55 0,0.04 0,0.09 0,0.13 v -0.26 c 0,44.01 0,73.72 0,93.77 v -0.27 c 0,0.05 0,0.09 0,0.14 0,8.03 -6.51,14.54 -14.54,14.54 z m -12.82,-22.17 c 0,0 0,0 0,0 1.07,0 1.93,-0.86 1.93,-1.93 0,0 0,0 0,0 v 0 c 0,-17.61 0,-41.58 0,-74.21 v 0.07 c 0,-0.01 0,-0.02 0,-0.04 0,-1.06 -0.86,-1.93 -1.93,-1.93 0,0 0,0 0,0 v 0 h -10.35 v 0 c 0,34.55 0,59.71 0,78.04 v 0 h 10.36 z"
   class="fil0 str0" />
  <path
   style="fill:#c5a974;stroke:#8f6c3a;stroke-width:0.51999998;stroke-miterlimit:22.92560005"
   id="svg_9"
   d="m 489.82,53.47 -38.69,-0.01 v 0 c -6.09,0 -11.02,4.94 -11.02,11.03 h -0.01 c 0,50.51 0,81.52 0,100.55 h 0.01 c 0,6.08 4.93,11.02 11.02,11.02 v 0 h 38.69 v 0 c 6.09,0 11.03,-4.93 11.03,-11.02 v 0 c 0,-20.21 0,-51.65 0,-100.55 v 0 c 0,-6.09 -4.94,-11.02 -11.03,-11.02 z m -14.14,100.42 c 1.07,0 1.93,-0.86 1.93,-1.93 v 0 c 0,-17.52 0,-41.46 0,-74.18 v 0 c 0,-1.06 -0.86,-1.93 -1.93,-1.93 0,0 0,0 0,0 v 0 h -11.08 0.07 c -0.01,0 -0.02,0 -0.04,0 -1.06,0 -1.93,0.87 -1.93,1.93 0,0.01 0,0.01 0,0.01 v 0 c 0,32.85 0,56.76 0,74.17 v 0 c 0,1.07 0.87,1.93 1.93,1.93 v 0 z"
   class="fil0 str0" />
  <path
   style="fill:#c5a974;stroke:#8f6c3a;stroke-width:0.51999998;stroke-miterlimit:22.92560005"
   id="svg_10"
   d="m 405.07,153.89 h 28.7 v 0 c 0,8.56 0,15.89 0,22.17 v 0 h -51.3 v 0 c 0,-20.76 0,-57.52 0,-122.6 v 0 h 22.6 v 0 c 0,48.03 0,79.64 0,100.43 z"
   class="fil0 str0" />
  <path
   style="fill:#c5a974;stroke:#8f6c3a;stroke-width:0.51999998;stroke-miterlimit:22.92560005"
   id="svg_11"
   d="m 546.27,103.04 c 1.06,0 1.93,-0.87 1.93,-1.93 0,-0.01 0,-0.01 0,-0.01 v 0.01 c 0,-7.22 0,-14.98 0,-23.33 v 0 c 0,-1.06 -0.87,-1.93 -1.93,-1.93 0,0 -0.01,0 -0.01,0 h 0.01 -14.73 v 0 c 0,50.76 0,81.55 0,100.21 v 0 H 508.3 v 0 c 0,-20.26 0,-56.79 0,-122.59 v 0 l 51.24,-0.43 h -0.01 v 0 c 6.09,0 11.03,4.94 11.03,11.03 v -0.08 c 0,19.24 0,35.93 0,50.39 v -0.08 c 0,6.09 -4.94,11.03 -11.03,11.03 v 0 h 0.08 c -0.82,0 -1.69,0 -2.6,0 v 0 c 10.32,29.67 15.28,43.92 17.66,50.77 l 0.08,-0.04 H 548.2 v 0 c -6.38,-24.65 -9.69,-37.43 -11.4,-44.05 v 0 c 0,-8.69 0,-18.31 0,-28.97 v 0 c 4.67,0 7.61,0 9.47,0 z"
   class="fil0 str0" />
  <path
   style="fill:#c5a974;stroke:#8f6c3a;stroke-width:0.51999998;stroke-miterlimit:22.92560005"
   id="svg_12"
   d="m 385.34,25.75 c 0,3.05 0,5.45 0,7.33 h 5.97 c 0,-1.4 0,-5.65 0,-18.6 h -5.97 c 0,2.87 0,5.42 0,7.68 H 374.3 c 0,-2.26 0,-4.81 0,-7.68 h -5.97 c 0,12.43 0,16.95 0,18.6 h 5.97 c 0,-1.88 0,-4.27 0,-7.33 z"
   class="fil0 str0" />
  <path
   style="fill:#c5a974;stroke:#8f6c3a;stroke-width:0.51999998;stroke-miterlimit:22.92560005"
   id="svg_13"
   d="m 363.59,14.48 c 0,1.28 0,2.47 0,3.59 l -8.39,-0.09 c 0,7.33 0,12.06 0,15.1 h -5.97 c 0,-3.05 0,-7.75 0,-15.01 h -8.39 c 0,-1.12 0,-2.31 0,-3.59 z"
   class="fil0 str0" />
  <path
   style="fill:#c5a974;stroke:#8f6c3a;stroke-width:0.51999998;stroke-miterlimit:22.92560005"
   id="svg_14"
   d="m 405.99,25.75 v 3.75 0 c 5.3,0 9.87,0 13.82,0 v 0 3.58 0 h -19.79 v 0 c 0,-2.22 0,-7.24 0,-18.6 v 0 h 19.79 v 0 3.59 -0.09 c 0,0 0,0 -13.82,0 v 0 4.18 0 h 10.8 v 0 c 0,1.35 0,2.54 0,3.59 v 0 z"
   class="fil0 str0" />
  <path
   style="fill:#c5a974;stroke:#8f6c3a;stroke-width:0.51999998;stroke-miterlimit:22.92560005"
   id="svg_15"
   d="m 12.88,34.18 c 325.86,0 325.86,0 325.86,0 v 0 c 0,-1.22 0,-3.1 0,-5.97 H 12.88 c 0,2.36 0,4.32 0,5.97 z"
   class="fil0 str0" />
  <path
   style="fill:#c5a974;stroke:#8f6c3a;stroke-width:0.51999998;stroke-miterlimit:22.92560005"
   id="svg_16"
   d="m 746.58,34.3 c -316.22,0 -316.22,0 -316.22,0 v 0 c 0,-1.22 0,-3.1 0,-5.97 h 316.22 c 0,2.36 0,4.33 0,5.97 z"
   class="fil0 str0" />
 </g></g></svg>